<mxfile host="app.diagrams.net" agent="Mozilla/5.0 (Windows NT 10.0; Win64; x64) AppleWebKit/537.36 (KHTML, like Gecko) Chrome/132.0.0.0 Safari/537.36" version="26.0.11">
  <diagram id="prtHgNgQTEPvFCAcTncT" name="Page-1">
    <mxGraphModel dx="1624" dy="1644" grid="1" gridSize="10" guides="1" tooltips="1" connect="1" arrows="1" fold="1" page="0" pageScale="1" pageWidth="827" pageHeight="1169" math="0" shadow="0">
      <root>
        <mxCell id="0" />
        <mxCell id="1" parent="0" />
        <mxCell id="fROJW_uFa1HICrX3GJMf-1" value="" style="strokeWidth=1;html=1;shape=mxgraph.lean_mapping.manufacturing_process;fontSize=12;verticalAlign=middle;html=1;align=center;whiteSpace=wrap;rounded=1;fillColor=#3399FF;strokeColor=none;fontColor=#FFFFFF;" vertex="1" parent="1">
          <mxGeometry x="839" y="-600" width="130" height="70" as="geometry" />
        </mxCell>
        <mxCell id="fROJW_uFa1HICrX3GJMf-2" value="Account" style="text;fontSize=12;spacingLeft=2;verticalAlign=top;html=1;align=center;spacingTop=-5;resizeWidth=1;fillColor=#004C99;fontColor=#FFFFFF;" vertex="1" parent="fROJW_uFa1HICrX3GJMf-1">
          <mxGeometry width="130" height="20" as="geometry" />
        </mxCell>
        <mxCell id="fROJW_uFa1HICrX3GJMf-3" value="Onboarding Sysatem" style="strokeWidth=2;html=1;shape=mxgraph.lean_mapping.outside_sources;whiteSpace=wrap;align=center;rounded=1;fillColor=#0066CC;fontFamily=Verdana;fontSize=12;fontColor=#FFFFFF;strokeColor=none;" vertex="1" parent="1">
          <mxGeometry x="150" y="-555" width="100" height="70" as="geometry" />
        </mxCell>
        <mxCell id="fROJW_uFa1HICrX3GJMf-4" value="Customer" style="strokeWidth=2;html=1;shape=mxgraph.lean_mapping.outside_sources;whiteSpace=wrap;align=center;rounded=1;fillColor=#0066CC;fontFamily=Verdana;fontSize=12;fontColor=#FFFFFF;strokeColor=none;" vertex="1" parent="1">
          <mxGeometry x="1429" y="-555" width="100" height="70" as="geometry" />
        </mxCell>
        <mxCell id="fROJW_uFa1HICrX3GJMf-5" value="" style="strokeWidth=2;html=1;shape=mxgraph.lean_mapping.manufacturing_process;fontSize=12;verticalAlign=middle;html=1;align=center;whiteSpace=wrap;rounded=1;fillColor=#3399FF;strokeColor=none;" vertex="1" parent="1">
          <mxGeometry x="330" y="-305" width="110" height="70" as="geometry" />
        </mxCell>
        <mxCell id="fROJW_uFa1HICrX3GJMf-6" value="Account Chooser" style="text;fontSize=12;spacingLeft=2;verticalAlign=top;html=1;align=center;spacingTop=-5;resizeWidth=1;fillColor=#004C99;strokeColor=none;fontColor=#FFFFFF;" vertex="1" parent="fROJW_uFa1HICrX3GJMf-5">
          <mxGeometry width="110.00000000000001" height="20" as="geometry" />
        </mxCell>
        <mxCell id="fROJW_uFa1HICrX3GJMf-7" value="" style="verticalLabelPosition=middle;html=1;verticalAlign=middle;strokeWidth=2;shape=mxgraph.lean_mapping.operator;rounded=1;fillColor=#004C99;fontFamily=Verdana;fontSize=12;fontColor=#FFFFFF;align=right;strokeColor=#FFFFFF;labelPosition=left;" vertex="1" parent="fROJW_uFa1HICrX3GJMf-5">
          <mxGeometry x="43" y="30" width="25" height="21" as="geometry" />
        </mxCell>
        <mxCell id="fROJW_uFa1HICrX3GJMf-8" value="" style="strokeWidth=2;html=1;shape=mxgraph.lean_mapping.manufacturing_process;fontSize=12;verticalAlign=middle;html=1;align=center;whiteSpace=wrap;rounded=1;fillColor=#3399FF;strokeColor=none;" vertex="1" parent="1">
          <mxGeometry x="510" y="-305" width="100" height="70" as="geometry" />
        </mxCell>
        <mxCell id="fROJW_uFa1HICrX3GJMf-9" value="Verify Customer" style="text;fontSize=12;spacingLeft=2;verticalAlign=top;html=1;align=center;spacingTop=-5;resizeWidth=1;fillColor=#004C99;strokeColor=none;fontColor=#FFFFFF;" vertex="1" parent="fROJW_uFa1HICrX3GJMf-8">
          <mxGeometry width="100" height="20" as="geometry" />
        </mxCell>
        <mxCell id="fROJW_uFa1HICrX3GJMf-10" value="" style="verticalLabelPosition=middle;html=1;verticalAlign=middle;strokeWidth=2;shape=mxgraph.lean_mapping.operator;rounded=1;fillColor=#004C99;fontFamily=Verdana;fontSize=12;fontColor=#FFFFFF;align=right;strokeColor=#FFFFFF;labelPosition=left;" vertex="1" parent="fROJW_uFa1HICrX3GJMf-8">
          <mxGeometry x="38" y="30" width="25" height="21" as="geometry" />
        </mxCell>
        <mxCell id="fROJW_uFa1HICrX3GJMf-11" value="" style="strokeWidth=2;html=1;shape=mxgraph.lean_mapping.manufacturing_process;fontSize=12;verticalAlign=middle;html=1;align=center;whiteSpace=wrap;rounded=1;fillColor=#3399FF;strokeColor=none;" vertex="1" parent="1">
          <mxGeometry x="680" y="-305" width="100" height="70" as="geometry" />
        </mxCell>
        <mxCell id="fROJW_uFa1HICrX3GJMf-12" value="Fraud Check" style="text;fontSize=12;spacingLeft=2;verticalAlign=top;html=1;align=center;spacingTop=-5;resizeWidth=1;fillColor=#004C99;strokeColor=none;fontColor=#FFFFFF;" vertex="1" parent="fROJW_uFa1HICrX3GJMf-11">
          <mxGeometry width="100" height="20" as="geometry" />
        </mxCell>
        <mxCell id="fROJW_uFa1HICrX3GJMf-13" value="" style="verticalLabelPosition=middle;html=1;verticalAlign=middle;strokeWidth=2;shape=mxgraph.lean_mapping.operator;rounded=1;fillColor=#004C99;fontFamily=Verdana;fontSize=12;fontColor=#FFFFFF;align=right;strokeColor=#FFFFFF;labelPosition=left;" vertex="1" parent="fROJW_uFa1HICrX3GJMf-11">
          <mxGeometry x="38" y="30" width="25" height="21" as="geometry" />
        </mxCell>
        <mxCell id="fROJW_uFa1HICrX3GJMf-14" value="" style="strokeWidth=2;html=1;shape=mxgraph.lean_mapping.manufacturing_process;fontSize=12;verticalAlign=middle;html=1;align=center;whiteSpace=wrap;rounded=1;fillColor=#3399FF;strokeColor=none;" vertex="1" parent="1">
          <mxGeometry x="860" y="-310" width="100" height="70" as="geometry" />
        </mxCell>
        <mxCell id="fROJW_uFa1HICrX3GJMf-15" value="Customer Setup" style="text;fontSize=12;spacingLeft=2;verticalAlign=top;html=1;align=center;spacingTop=-5;resizeWidth=1;fillColor=#004C99;strokeColor=none;fontColor=#FFFFFF;" vertex="1" parent="fROJW_uFa1HICrX3GJMf-14">
          <mxGeometry width="100" height="20" as="geometry" />
        </mxCell>
        <mxCell id="fROJW_uFa1HICrX3GJMf-16" value="" style="verticalLabelPosition=middle;html=1;verticalAlign=middle;strokeWidth=2;shape=mxgraph.lean_mapping.operator;rounded=1;fillColor=#004C99;fontFamily=Verdana;fontSize=12;fontColor=#FFFFFF;align=right;strokeColor=#FFFFFF;labelPosition=left;" vertex="1" parent="fROJW_uFa1HICrX3GJMf-14">
          <mxGeometry x="38" y="32" width="25" height="21" as="geometry" />
        </mxCell>
        <mxCell id="fROJW_uFa1HICrX3GJMf-17" value="" style="html=1;shadow=0;dashed=0;align=center;verticalAlign=middle;shape=mxgraph.arrows2.arrow;dy=0.6;dx=33.71;direction=south;notch=0;rounded=1;strokeColor=none;strokeWidth=2;fillColor=#66B2FF;fontFamily=Verdana;fontSize=14;fontColor=#000000;" vertex="1" parent="1">
          <mxGeometry x="188" y="-475" width="30" height="160" as="geometry" />
        </mxCell>
        <mxCell id="fROJW_uFa1HICrX3GJMf-18" value="&lt;div&gt;Public&lt;/div&gt;Portal" style="strokeWidth=2;html=1;shape=mxgraph.lean_mapping.schedule;whiteSpace=wrap;align=center;rounded=1;fillColor=#3399FF;fontFamily=Verdana;fontSize=14;fontColor=#FFFFFF;strokeColor=none;" vertex="1" parent="1">
          <mxGeometry x="150" y="-305" width="100" height="75" as="geometry" />
        </mxCell>
        <mxCell id="fROJW_uFa1HICrX3GJMf-19" value="Secure Portal" style="strokeWidth=2;html=1;shape=mxgraph.lean_mapping.schedule;whiteSpace=wrap;align=center;rounded=1;fillColor=#3399FF;fontFamily=Verdana;fontSize=14;fontColor=#FFFFFF;strokeColor=none;" vertex="1" parent="1">
          <mxGeometry x="1419" y="-310" width="100" height="70" as="geometry" />
        </mxCell>
        <mxCell id="fROJW_uFa1HICrX3GJMf-20" value="1 time" style="shape=mxgraph.lean_mapping.electronic_info_flow_edge;html=1;startSize=5;endSize=5;jettySize=auto;orthogonalLoop=1;strokeColor=#3399FF;strokeWidth=2;fontFamily=Verdana;fontSize=14;fontColor=#000000;" edge="1" parent="1" source="fROJW_uFa1HICrX3GJMf-1" target="fROJW_uFa1HICrX3GJMf-3">
          <mxGeometry width="100" height="100" relative="1" as="geometry">
            <mxPoint x="600" y="-525" as="sourcePoint" />
            <mxPoint x="310" y="-505" as="targetPoint" />
          </mxGeometry>
        </mxCell>
        <mxCell id="fROJW_uFa1HICrX3GJMf-21" value="1 time" style="shape=mxgraph.lean_mapping.electronic_info_flow_edge;html=1;startSize=5;endSize=5;jettySize=auto;orthogonalLoop=1;strokeColor=#3399FF;strokeWidth=2;fontFamily=Verdana;fontSize=14;fontColor=#000000;" edge="1" parent="1" source="fROJW_uFa1HICrX3GJMf-4" target="fROJW_uFa1HICrX3GJMf-1">
          <mxGeometry width="100" height="100" relative="1" as="geometry">
            <mxPoint x="1060" y="-535" as="sourcePoint" />
            <mxPoint x="760" y="-525" as="targetPoint" />
          </mxGeometry>
        </mxCell>
        <mxCell id="fROJW_uFa1HICrX3GJMf-22" value="" style="verticalLabelPosition=bottom;html=1;verticalAlign=top;strokeWidth=2;shape=mxgraph.lean_mapping.timeline2;dx1=0;dy1=0;dx2=195.125;dy2=0.97;dx3=255.958;dy3=0;dx4=370.958;dy4=0.866;dx5=429.292;dy5=0;dy6=1;rounded=1;fillColor=#0066CC;fontFamily=Verdana;fontSize=12;fontColor=#FFFFFF;align=center;strokeColor=#004C99;" vertex="1" parent="1">
          <mxGeometry x="166" y="-75" width="540" height="40" as="geometry" />
        </mxCell>
        <mxCell id="fROJW_uFa1HICrX3GJMf-27" value="" style="html=1;shadow=0;dashed=0;align=center;verticalAlign=middle;shape=mxgraph.arrows2.arrow;dy=0.6;dx=33.71;direction=south;notch=0;rounded=1;strokeColor=none;strokeWidth=2;fillColor=#66B2FF;fontFamily=Verdana;fontSize=14;fontColor=#000000;rotation=-180;" vertex="1" parent="1">
          <mxGeometry x="1459" y="-475" width="30" height="160" as="geometry" />
        </mxCell>
        <mxCell id="fROJW_uFa1HICrX3GJMf-29" value="" style="strokeWidth=2;html=1;shape=mxgraph.lean_mapping.data_box;html=1;rounded=1;fillColor=#A9C4EB;fontFamily=Verdana;fontSize=12;fontColor=#FFFFFF;align=center;strokeColor=#003366;" vertex="1" parent="1">
          <mxGeometry x="355" y="-205" width="60" height="100" as="geometry" />
        </mxCell>
        <mxCell id="fROJW_uFa1HICrX3GJMf-30" value="LT= 2 days" style="text;fontSize=8;spacingLeft=2;verticalAlign=middle;html=1;" vertex="1" parent="fROJW_uFa1HICrX3GJMf-29">
          <mxGeometry width="60" height="20" as="geometry" />
        </mxCell>
        <mxCell id="fROJW_uFa1HICrX3GJMf-31" value="PT: 2 min" style="text;fontSize=8;spacingLeft=2;verticalAlign=middle;html=1;" vertex="1" parent="fROJW_uFa1HICrX3GJMf-29">
          <mxGeometry y="20" width="60" height="20" as="geometry" />
        </mxCell>
        <mxCell id="fROJW_uFa1HICrX3GJMf-32" value="Batch= 1" style="text;fontSize=8;spacingLeft=2;verticalAlign=middle;html=1;" vertex="1" parent="fROJW_uFa1HICrX3GJMf-29">
          <mxGeometry y="40" width="60" height="20" as="geometry" />
        </mxCell>
        <mxCell id="fROJW_uFa1HICrX3GJMf-33" value="Avail= 80%" style="text;fontSize=8;spacingLeft=2;verticalAlign=middle;html=1;" vertex="1" parent="fROJW_uFa1HICrX3GJMf-29">
          <mxGeometry y="60" width="60" height="20" as="geometry" />
        </mxCell>
        <mxCell id="fROJW_uFa1HICrX3GJMf-34" value="" style="strokeWidth=2;html=1;shape=mxgraph.lean_mapping.data_box;html=1;rounded=1;fillColor=#A9C4EB;fontFamily=Verdana;fontSize=12;fontColor=#FFFFFF;align=center;strokeColor=#003366;" vertex="1" parent="1">
          <mxGeometry x="530" y="-205" width="60" height="100" as="geometry" />
        </mxCell>
        <mxCell id="fROJW_uFa1HICrX3GJMf-35" value="LT= 5 days" style="text;fontSize=8;spacingLeft=2;verticalAlign=middle;html=1;" vertex="1" parent="fROJW_uFa1HICrX3GJMf-34">
          <mxGeometry width="60" height="20" as="geometry" />
        </mxCell>
        <mxCell id="fROJW_uFa1HICrX3GJMf-36" value="PT: 240 min" style="text;fontSize=8;spacingLeft=2;verticalAlign=middle;html=1;" vertex="1" parent="fROJW_uFa1HICrX3GJMf-34">
          <mxGeometry y="20" width="60" height="20" as="geometry" />
        </mxCell>
        <mxCell id="fROJW_uFa1HICrX3GJMf-37" value="Batch= 10" style="text;fontSize=8;spacingLeft=2;verticalAlign=middle;html=1;" vertex="1" parent="fROJW_uFa1HICrX3GJMf-34">
          <mxGeometry y="40" width="60" height="20" as="geometry" />
        </mxCell>
        <mxCell id="fROJW_uFa1HICrX3GJMf-38" value="Avail= 70%" style="text;fontSize=8;spacingLeft=2;verticalAlign=middle;html=1;" vertex="1" parent="fROJW_uFa1HICrX3GJMf-34">
          <mxGeometry y="60" width="60" height="20" as="geometry" />
        </mxCell>
        <mxCell id="fROJW_uFa1HICrX3GJMf-39" value="" style="text;fontSize=8;spacingLeft=2;verticalAlign=middle;html=1;" vertex="1" parent="fROJW_uFa1HICrX3GJMf-34">
          <mxGeometry y="80" width="60" height="20" as="geometry" />
        </mxCell>
        <mxCell id="fROJW_uFa1HICrX3GJMf-40" value="" style="strokeWidth=2;html=1;shape=mxgraph.lean_mapping.data_box;html=1;rounded=1;fillColor=#A9C4EB;fontFamily=Verdana;fontSize=12;fontColor=#FFFFFF;align=center;strokeColor=#003366;" vertex="1" parent="1">
          <mxGeometry x="700" y="-205" width="60" height="100" as="geometry" />
        </mxCell>
        <mxCell id="fROJW_uFa1HICrX3GJMf-41" value="LT= 7 days" style="text;fontSize=8;spacingLeft=2;verticalAlign=middle;html=1;" vertex="1" parent="fROJW_uFa1HICrX3GJMf-40">
          <mxGeometry width="60" height="20" as="geometry" />
        </mxCell>
        <mxCell id="fROJW_uFa1HICrX3GJMf-42" value="PT: 240 min" style="text;fontSize=8;spacingLeft=2;verticalAlign=middle;html=1;" vertex="1" parent="fROJW_uFa1HICrX3GJMf-40">
          <mxGeometry y="20" width="60" height="20" as="geometry" />
        </mxCell>
        <mxCell id="fROJW_uFa1HICrX3GJMf-43" value="Batch= 10&amp;nbsp;" style="text;fontSize=8;spacingLeft=2;verticalAlign=middle;html=1;" vertex="1" parent="fROJW_uFa1HICrX3GJMf-40">
          <mxGeometry y="40" width="60" height="20" as="geometry" />
        </mxCell>
        <mxCell id="fROJW_uFa1HICrX3GJMf-44" value="Avail= 75%" style="text;fontSize=8;spacingLeft=2;verticalAlign=middle;html=1;" vertex="1" parent="fROJW_uFa1HICrX3GJMf-40">
          <mxGeometry y="60" width="60" height="20" as="geometry" />
        </mxCell>
        <mxCell id="fROJW_uFa1HICrX3GJMf-45" value="" style="text;fontSize=8;spacingLeft=2;verticalAlign=middle;html=1;" vertex="1" parent="fROJW_uFa1HICrX3GJMf-40">
          <mxGeometry y="80" width="60" height="20" as="geometry" />
        </mxCell>
        <mxCell id="fROJW_uFa1HICrX3GJMf-46" value="" style="strokeWidth=2;html=1;shape=mxgraph.lean_mapping.data_box;html=1;rounded=1;fillColor=#A9C4EB;fontFamily=Verdana;fontSize=12;fontColor=#FFFFFF;align=center;strokeColor=#003366;" vertex="1" parent="1">
          <mxGeometry x="880" y="-205" width="60" height="100" as="geometry" />
        </mxCell>
        <mxCell id="fROJW_uFa1HICrX3GJMf-47" value="LT= 5 days" style="text;fontSize=8;spacingLeft=2;verticalAlign=middle;html=1;" vertex="1" parent="fROJW_uFa1HICrX3GJMf-46">
          <mxGeometry width="60" height="20" as="geometry" />
        </mxCell>
        <mxCell id="fROJW_uFa1HICrX3GJMf-48" value="PT: 60 min" style="text;fontSize=8;spacingLeft=2;verticalAlign=middle;html=1;" vertex="1" parent="fROJW_uFa1HICrX3GJMf-46">
          <mxGeometry y="20" width="60" height="20" as="geometry" />
        </mxCell>
        <mxCell id="fROJW_uFa1HICrX3GJMf-49" value="Batch= 10&amp;nbsp;" style="text;fontSize=8;spacingLeft=2;verticalAlign=middle;html=1;" vertex="1" parent="fROJW_uFa1HICrX3GJMf-46">
          <mxGeometry y="40" width="60" height="20" as="geometry" />
        </mxCell>
        <mxCell id="fROJW_uFa1HICrX3GJMf-50" value="Avail= 95%" style="text;fontSize=8;spacingLeft=2;verticalAlign=middle;html=1;" vertex="1" parent="fROJW_uFa1HICrX3GJMf-46">
          <mxGeometry y="60" width="60" height="20" as="geometry" />
        </mxCell>
        <mxCell id="fROJW_uFa1HICrX3GJMf-51" value="" style="text;fontSize=8;spacingLeft=2;verticalAlign=middle;html=1;" vertex="1" parent="fROJW_uFa1HICrX3GJMf-46">
          <mxGeometry y="80" width="60" height="20" as="geometry" />
        </mxCell>
        <mxCell id="fROJW_uFa1HICrX3GJMf-52" value="" style="verticalLabelPosition=bottom;html=1;verticalAlign=top;strokeWidth=2;shape=mxgraph.lean_mapping.timeline2;dx1=0;dy1=0.991;dx2=59.292;dy2=0;dx3=180.125;dy3=0.845;dx4=240.125;dy4=0;dx5=269.292;dy5=0;dy6=0;rounded=1;fillColor=#0066CC;fontFamily=Verdana;fontSize=12;fontColor=#FFFFFF;align=center;strokeColor=#004C99;" vertex="1" parent="1">
          <mxGeometry x="1064" y="-75" width="440" height="40" as="geometry" />
        </mxCell>
        <mxCell id="fROJW_uFa1HICrX3GJMf-53" value="0 days" style="text;html=1;resizable=0;points=[];autosize=1;align=center;verticalAlign=top;spacingTop=-4;fontSize=12;fontFamily=Verdana;fontColor=#004C99;" vertex="1" parent="1">
          <mxGeometry x="230" y="-95" width="58" height="20" as="geometry" />
        </mxCell>
        <mxCell id="fROJW_uFa1HICrX3GJMf-54" value="2 min" style="text;html=1;resizable=0;points=[];autosize=1;align=center;verticalAlign=top;spacingTop=-4;fontSize=12;fontFamily=Verdana;fontColor=#004C99;" vertex="1" parent="1">
          <mxGeometry x="366" y="-55" width="50" height="20" as="geometry" />
        </mxCell>
        <mxCell id="fROJW_uFa1HICrX3GJMf-55" value="2 days" style="text;html=1;resizable=0;points=[];autosize=1;align=center;verticalAlign=top;spacingTop=-4;fontSize=12;fontFamily=Verdana;fontColor=#004C99;" vertex="1" parent="1">
          <mxGeometry x="450" y="-95" width="58" height="20" as="geometry" />
        </mxCell>
        <mxCell id="fROJW_uFa1HICrX3GJMf-56" value="240 min" style="text;html=1;resizable=0;points=[];autosize=1;align=center;verticalAlign=top;spacingTop=-4;fontSize=12;fontFamily=Verdana;fontColor=#004C99;" vertex="1" parent="1">
          <mxGeometry x="532" y="-55" width="68" height="20" as="geometry" />
        </mxCell>
        <mxCell id="fROJW_uFa1HICrX3GJMf-57" value="5 days" style="text;html=1;resizable=0;points=[];autosize=1;align=center;verticalAlign=top;spacingTop=-4;fontSize=12;fontFamily=Verdana;fontColor=#004C99;" vertex="1" parent="1">
          <mxGeometry x="620" y="-95" width="58" height="20" as="geometry" />
        </mxCell>
        <mxCell id="fROJW_uFa1HICrX3GJMf-58" value="120 min" style="text;html=1;resizable=0;points=[];autosize=1;align=center;verticalAlign=top;spacingTop=-4;fontSize=12;fontFamily=Verdana;fontColor=#004C99;" vertex="1" parent="1">
          <mxGeometry x="1060" y="-55" width="68" height="20" as="geometry" />
        </mxCell>
        <mxCell id="fROJW_uFa1HICrX3GJMf-59" value="2 days" style="text;html=1;resizable=0;points=[];autosize=1;align=center;verticalAlign=top;spacingTop=-4;fontSize=12;fontFamily=Verdana;fontColor=#004C99;" vertex="1" parent="1">
          <mxGeometry x="1153" y="-95" width="58" height="20" as="geometry" />
        </mxCell>
        <mxCell id="fROJW_uFa1HICrX3GJMf-60" value="120 min" style="text;html=1;resizable=0;points=[];autosize=1;align=center;verticalAlign=top;spacingTop=-4;fontSize=12;fontFamily=Verdana;fontColor=#004C99;" vertex="1" parent="1">
          <mxGeometry x="1240" y="-55" width="68" height="20" as="geometry" />
        </mxCell>
        <mxCell id="fROJW_uFa1HICrX3GJMf-61" value="21 days" style="text;html=1;resizable=0;points=[];autosize=1;align=center;verticalAlign=top;spacingTop=-4;fontSize=12;fontFamily=Verdana;fontColor=#004C99;" vertex="1" parent="1">
          <mxGeometry x="1369" y="-95" width="70" height="20" as="geometry" />
        </mxCell>
        <mxCell id="fROJW_uFa1HICrX3GJMf-62" value="" style="strokeWidth=2;html=1;shape=mxgraph.lean_mapping.manufacturing_process;fontSize=12;verticalAlign=middle;html=1;align=center;whiteSpace=wrap;rounded=1;fillColor=#3399FF;strokeColor=none;" vertex="1" parent="1">
          <mxGeometry x="1045" y="-310" width="100" height="70" as="geometry" />
        </mxCell>
        <mxCell id="fROJW_uFa1HICrX3GJMf-63" value="Product Setup" style="text;fontSize=12;spacingLeft=2;verticalAlign=top;html=1;align=center;spacingTop=-5;resizeWidth=1;fillColor=#004C99;strokeColor=none;fontColor=#FFFFFF;" vertex="1" parent="fROJW_uFa1HICrX3GJMf-62">
          <mxGeometry width="100" height="20" as="geometry" />
        </mxCell>
        <mxCell id="fROJW_uFa1HICrX3GJMf-64" value="" style="verticalLabelPosition=middle;html=1;verticalAlign=middle;strokeWidth=2;shape=mxgraph.lean_mapping.operator;rounded=1;fillColor=#004C99;fontFamily=Verdana;fontSize=12;fontColor=#FFFFFF;align=right;strokeColor=#FFFFFF;labelPosition=left;" vertex="1" parent="fROJW_uFa1HICrX3GJMf-62">
          <mxGeometry x="38" y="32" width="25" height="21" as="geometry" />
        </mxCell>
        <mxCell id="fROJW_uFa1HICrX3GJMf-66" value="" style="strokeWidth=2;html=1;shape=mxgraph.lean_mapping.data_box;html=1;rounded=1;fillColor=#A9C4EB;fontFamily=Verdana;fontSize=12;fontColor=#FFFFFF;align=center;strokeColor=#003366;" vertex="1" parent="1">
          <mxGeometry x="1065" y="-205" width="60" height="100" as="geometry" />
        </mxCell>
        <mxCell id="fROJW_uFa1HICrX3GJMf-67" value="LT= 2 days" style="text;fontSize=8;spacingLeft=2;verticalAlign=middle;html=1;" vertex="1" parent="fROJW_uFa1HICrX3GJMf-66">
          <mxGeometry width="60" height="20" as="geometry" />
        </mxCell>
        <mxCell id="fROJW_uFa1HICrX3GJMf-68" value="PT: 120 min" style="text;fontSize=8;spacingLeft=2;verticalAlign=middle;html=1;" vertex="1" parent="fROJW_uFa1HICrX3GJMf-66">
          <mxGeometry y="20" width="60" height="20" as="geometry" />
        </mxCell>
        <mxCell id="fROJW_uFa1HICrX3GJMf-69" value="Batch= 10&amp;nbsp;" style="text;fontSize=8;spacingLeft=2;verticalAlign=middle;html=1;" vertex="1" parent="fROJW_uFa1HICrX3GJMf-66">
          <mxGeometry y="40" width="60" height="20" as="geometry" />
        </mxCell>
        <mxCell id="fROJW_uFa1HICrX3GJMf-70" value="Avail= 95%" style="text;fontSize=8;spacingLeft=2;verticalAlign=middle;html=1;" vertex="1" parent="fROJW_uFa1HICrX3GJMf-66">
          <mxGeometry y="60" width="60" height="20" as="geometry" />
        </mxCell>
        <mxCell id="fROJW_uFa1HICrX3GJMf-71" value="" style="text;fontSize=8;spacingLeft=2;verticalAlign=middle;html=1;" vertex="1" parent="fROJW_uFa1HICrX3GJMf-66">
          <mxGeometry y="80" width="60" height="20" as="geometry" />
        </mxCell>
        <mxCell id="fROJW_uFa1HICrX3GJMf-72" value="" style="strokeWidth=2;html=1;shape=mxgraph.lean_mapping.manufacturing_process;fontSize=12;verticalAlign=middle;html=1;align=center;whiteSpace=wrap;rounded=1;fillColor=#3399FF;strokeColor=none;" vertex="1" parent="1">
          <mxGeometry x="1229" y="-310" width="100" height="70" as="geometry" />
        </mxCell>
        <mxCell id="fROJW_uFa1HICrX3GJMf-73" value="Online Access" style="text;fontSize=12;spacingLeft=2;verticalAlign=top;html=1;align=center;spacingTop=-5;resizeWidth=1;fillColor=#004C99;strokeColor=none;fontColor=#FFFFFF;" vertex="1" parent="fROJW_uFa1HICrX3GJMf-72">
          <mxGeometry width="100" height="20" as="geometry" />
        </mxCell>
        <mxCell id="fROJW_uFa1HICrX3GJMf-74" value="" style="verticalLabelPosition=middle;html=1;verticalAlign=middle;strokeWidth=2;shape=mxgraph.lean_mapping.operator;rounded=1;fillColor=#004C99;fontFamily=Verdana;fontSize=12;fontColor=#FFFFFF;align=right;strokeColor=#FFFFFF;labelPosition=left;" vertex="1" parent="fROJW_uFa1HICrX3GJMf-72">
          <mxGeometry x="38" y="32" width="25" height="21" as="geometry" />
        </mxCell>
        <mxCell id="fROJW_uFa1HICrX3GJMf-76" value="" style="strokeWidth=2;html=1;shape=mxgraph.lean_mapping.data_box;html=1;rounded=1;fillColor=#A9C4EB;fontFamily=Verdana;fontSize=12;fontColor=#FFFFFF;align=center;strokeColor=#003366;" vertex="1" parent="1">
          <mxGeometry x="1249" y="-205" width="60" height="100" as="geometry" />
        </mxCell>
        <mxCell id="fROJW_uFa1HICrX3GJMf-77" value="LT= 2 days" style="text;fontSize=8;spacingLeft=2;verticalAlign=middle;html=1;" vertex="1" parent="fROJW_uFa1HICrX3GJMf-76">
          <mxGeometry width="60" height="20" as="geometry" />
        </mxCell>
        <mxCell id="fROJW_uFa1HICrX3GJMf-78" value="PT: 120 min" style="text;fontSize=8;spacingLeft=2;verticalAlign=middle;html=1;" vertex="1" parent="fROJW_uFa1HICrX3GJMf-76">
          <mxGeometry y="20" width="60" height="20" as="geometry" />
        </mxCell>
        <mxCell id="fROJW_uFa1HICrX3GJMf-79" value="Batch= 10" style="text;fontSize=8;spacingLeft=2;verticalAlign=middle;html=1;" vertex="1" parent="fROJW_uFa1HICrX3GJMf-76">
          <mxGeometry y="40" width="60" height="20" as="geometry" />
        </mxCell>
        <mxCell id="fROJW_uFa1HICrX3GJMf-80" value="Avail= 95%" style="text;fontSize=8;spacingLeft=2;verticalAlign=middle;html=1;" vertex="1" parent="fROJW_uFa1HICrX3GJMf-76">
          <mxGeometry y="60" width="60" height="20" as="geometry" />
        </mxCell>
        <mxCell id="fROJW_uFa1HICrX3GJMf-81" value="" style="text;fontSize=8;spacingLeft=2;verticalAlign=middle;html=1;" vertex="1" parent="fROJW_uFa1HICrX3GJMf-76">
          <mxGeometry y="80" width="60" height="20" as="geometry" />
        </mxCell>
        <mxCell id="fROJW_uFa1HICrX3GJMf-82" value="" style="verticalLabelPosition=bottom;html=1;verticalAlign=top;strokeWidth=2;shape=mxgraph.lean_mapping.timeline2;dx1=0;dy1=0.991;dx2=59.292;dy2=0;dx3=180.125;dy3=0.845;dx4=240.125;dy4=0;dx5=269.292;dy5=0;dy6=0;rounded=1;fillColor=#0066CC;fontFamily=Verdana;fontSize=12;fontColor=#FFFFFF;align=center;strokeColor=#004C99;" vertex="1" parent="1">
          <mxGeometry x="706" y="-75" width="359" height="40" as="geometry" />
        </mxCell>
        <mxCell id="fROJW_uFa1HICrX3GJMf-83" value="7 days" style="text;html=1;resizable=0;points=[];autosize=1;align=center;verticalAlign=top;spacingTop=-4;fontSize=12;fontFamily=Verdana;fontColor=#004C99;" vertex="1" parent="1">
          <mxGeometry x="790" y="-95" width="58" height="20" as="geometry" />
        </mxCell>
        <mxCell id="fROJW_uFa1HICrX3GJMf-84" value="240 min" style="text;html=1;resizable=0;points=[];autosize=1;align=center;verticalAlign=top;spacingTop=-4;fontSize=12;fontFamily=Verdana;fontColor=#004C99;" vertex="1" parent="1">
          <mxGeometry x="702" y="-55" width="68" height="20" as="geometry" />
        </mxCell>
        <mxCell id="fROJW_uFa1HICrX3GJMf-85" value="5 days" style="text;html=1;resizable=0;points=[];autosize=1;align=center;verticalAlign=top;spacingTop=-4;fontSize=12;fontFamily=Verdana;fontColor=#004C99;" vertex="1" parent="1">
          <mxGeometry x="970" y="-95" width="58" height="20" as="geometry" />
        </mxCell>
        <mxCell id="fROJW_uFa1HICrX3GJMf-86" value="60 min" style="text;html=1;resizable=0;points=[];autosize=1;align=center;verticalAlign=top;spacingTop=-4;fontSize=12;fontFamily=Verdana;fontColor=#004C99;" vertex="1" parent="1">
          <mxGeometry x="886" y="-55" width="60" height="20" as="geometry" />
        </mxCell>
        <mxCell id="fROJW_uFa1HICrX3GJMf-87" value="" style="line;strokeWidth=2;rotatable=0;dashed=0;labelPosition=right;align=left;verticalAlign=middle;spacingTop=0;spacingLeft=6;points=[];portConstraint=eastwest;direction=south;fillColor=light-dark(#ffffff, #ededed);strokeColor=light-dark(#004c99, #ededed);" vertex="1" parent="1">
          <mxGeometry x="1057" y="-75" width="15" height="41" as="geometry" />
        </mxCell>
        <mxCell id="fROJW_uFa1HICrX3GJMf-88" value="Computer" style="pointerEvents=1;shadow=0;dashed=0;html=1;strokeColor=none;fillColor=#4495D1;labelPosition=center;verticalLabelPosition=bottom;verticalAlign=top;align=center;outlineConnect=0;shape=mxgraph.veeam.laptop;" vertex="1" parent="1">
          <mxGeometry x="110" y="-435" width="69.4" height="57" as="geometry" />
        </mxCell>
        <mxCell id="fROJW_uFa1HICrX3GJMf-89" value="2FA Mobile" style="verticalLabelPosition=bottom;html=1;verticalAlign=top;align=center;strokeColor=none;fillColor=#4495D1;shape=mxgraph.azure.mobile;pointerEvents=1;" vertex="1" parent="1">
          <mxGeometry x="1532" y="-444" width="53" height="98" as="geometry" />
        </mxCell>
        <mxCell id="fROJW_uFa1HICrX3GJMf-90" value="" style="html=1;verticalLabelPosition=bottom;align=center;labelBackgroundColor=#ffffff;verticalAlign=top;strokeWidth=2;strokeColor=#0080F0;shadow=0;dashed=0;shape=mxgraph.ios7.icons.mail;" vertex="1" parent="1">
          <mxGeometry x="1543.5" y="-403.25" width="30" height="16.5" as="geometry" />
        </mxCell>
        <mxCell id="fROJW_uFa1HICrX3GJMf-91" value="" style="group" vertex="1" connectable="0" parent="1">
          <mxGeometry x="1449" y="-210" width="260" height="80" as="geometry" />
        </mxCell>
        <mxCell id="fROJW_uFa1HICrX3GJMf-92" value="&lt;span style=&quot;text-wrap-mode: nowrap;&quot;&gt;&lt;span style=&quot;white-space: pre;&quot;&gt;&#x9;&lt;/span&gt;&amp;nbsp; &amp;nbsp; &amp;nbsp;Total Processing Time: 13 hours&lt;/span&gt;&lt;div style=&quot;&quot;&gt;&lt;span style=&quot;text-wrap-mode: nowrap; font-weight: normal;&quot;&gt;&lt;i&gt;&lt;span style=&quot;white-space: pre;&quot;&gt;&#x9;&lt;/span&gt;&amp;nbsp; &amp;nbsp; &amp;nbsp;Due to current Batch Processing&lt;/i&gt;&lt;/span&gt;&lt;/div&gt;" style="rounded=0;whiteSpace=wrap;html=1;strokeWidth=2;fontSize=13;fontStyle=1;align=left;" vertex="1" parent="fROJW_uFa1HICrX3GJMf-91">
          <mxGeometry y="40" width="260" height="40" as="geometry" />
        </mxCell>
        <mxCell id="fROJW_uFa1HICrX3GJMf-93" value="&lt;span style=&quot;text-wrap-mode: nowrap;&quot;&gt;&lt;b&gt;&lt;span style=&quot;white-space: pre;&quot;&gt;&#x9;&lt;/span&gt;&amp;nbsp; &amp;nbsp; &amp;nbsp;Total Time: 21 days&lt;/b&gt;&lt;/span&gt;" style="rounded=0;whiteSpace=wrap;html=1;strokeWidth=2;fontSize=13;fontStyle=0;align=left;" vertex="1" parent="fROJW_uFa1HICrX3GJMf-91">
          <mxGeometry width="260" height="40" as="geometry" />
        </mxCell>
        <mxCell id="fROJW_uFa1HICrX3GJMf-94" value="" style="image;sketch=0;aspect=fixed;html=1;points=[];align=center;fontSize=12;image=img/lib/mscae/Clock.svg;" vertex="1" parent="fROJW_uFa1HICrX3GJMf-91">
          <mxGeometry x="16" y="45" width="28" height="28" as="geometry" />
        </mxCell>
        <mxCell id="fROJW_uFa1HICrX3GJMf-95" value="" style="sketch=0;pointerEvents=1;shadow=0;dashed=0;html=1;strokeColor=none;fillColor=#3399FF;labelPosition=center;verticalLabelPosition=bottom;verticalAlign=top;align=center;outlineConnect=0;shape=mxgraph.veeam2.calendar;" vertex="1" parent="fROJW_uFa1HICrX3GJMf-91">
          <mxGeometry x="16" y="6" width="28.000000000000004" height="28.000000000000004" as="geometry" />
        </mxCell>
        <mxCell id="fROJW_uFa1HICrX3GJMf-98" value="" style="endArrow=block;html=1;rounded=0;flowAnimation=1;dashed=1;strokeWidth=5;strokeColor=#3399FF;endFill=1;" edge="1" parent="1">
          <mxGeometry width="50" height="50" relative="1" as="geometry">
            <mxPoint x="255" y="-268.06" as="sourcePoint" />
            <mxPoint x="325" y="-268.06" as="targetPoint" />
          </mxGeometry>
        </mxCell>
        <mxCell id="fROJW_uFa1HICrX3GJMf-99" value="" style="endArrow=block;html=1;rounded=0;flowAnimation=1;dashed=1;strokeWidth=5;strokeColor=#3399FF;endFill=1;" edge="1" parent="1">
          <mxGeometry width="50" height="50" relative="1" as="geometry">
            <mxPoint x="444" y="-268.06" as="sourcePoint" />
            <mxPoint x="514" y="-268.06" as="targetPoint" />
          </mxGeometry>
        </mxCell>
        <mxCell id="fROJW_uFa1HICrX3GJMf-100" value="" style="endArrow=block;html=1;rounded=0;flowAnimation=1;dashed=1;strokeWidth=5;strokeColor=#3399FF;endFill=1;" edge="1" parent="1">
          <mxGeometry width="50" height="50" relative="1" as="geometry">
            <mxPoint x="610" y="-268.06" as="sourcePoint" />
            <mxPoint x="680" y="-268.06" as="targetPoint" />
          </mxGeometry>
        </mxCell>
        <mxCell id="fROJW_uFa1HICrX3GJMf-101" value="" style="endArrow=block;html=1;rounded=0;flowAnimation=1;dashed=1;strokeWidth=5;strokeColor=#3399FF;endFill=1;" edge="1" parent="1">
          <mxGeometry width="50" height="50" relative="1" as="geometry">
            <mxPoint x="789" y="-268.06" as="sourcePoint" />
            <mxPoint x="859" y="-268.06" as="targetPoint" />
          </mxGeometry>
        </mxCell>
        <mxCell id="fROJW_uFa1HICrX3GJMf-102" value="" style="endArrow=block;html=1;rounded=0;flowAnimation=1;dashed=1;strokeWidth=5;strokeColor=#3399FF;endFill=1;" edge="1" parent="1">
          <mxGeometry width="50" height="50" relative="1" as="geometry">
            <mxPoint x="964" y="-268.06" as="sourcePoint" />
            <mxPoint x="1034" y="-268.06" as="targetPoint" />
          </mxGeometry>
        </mxCell>
        <mxCell id="fROJW_uFa1HICrX3GJMf-103" value="" style="endArrow=block;html=1;rounded=0;flowAnimation=1;dashed=1;strokeWidth=5;strokeColor=#3399FF;endFill=1;" edge="1" parent="1">
          <mxGeometry width="50" height="50" relative="1" as="geometry">
            <mxPoint x="1155" y="-268.06" as="sourcePoint" />
            <mxPoint x="1225" y="-268.06" as="targetPoint" />
          </mxGeometry>
        </mxCell>
        <mxCell id="fROJW_uFa1HICrX3GJMf-104" value="" style="endArrow=block;html=1;rounded=0;flowAnimation=1;dashed=1;strokeWidth=5;strokeColor=#3399FF;endFill=1;" edge="1" parent="1">
          <mxGeometry width="50" height="50" relative="1" as="geometry">
            <mxPoint x="1324" y="-268.06" as="sourcePoint" />
            <mxPoint x="1394" y="-268.06" as="targetPoint" />
          </mxGeometry>
        </mxCell>
      </root>
    </mxGraphModel>
  </diagram>
</mxfile>
